<?xml version="1.0" encoding="UTF-8"?>
<svg inkscape:version="1.0.2 (e86c870879, 2021-01-15, custom)" sodipodi:docname="OpenBSD logo.svg" version="1.1" viewBox="0 0 670 138" xmlns="http://www.w3.org/2000/svg" xmlns:cc="http://creativecommons.org/ns#" xmlns:dc="http://purl.org/dc/elements/1.1/" xmlns:inkscape="http://www.inkscape.org/namespaces/inkscape" xmlns:rdf="http://www.w3.org/1999/02/22-rdf-syntax-ns#" xmlns:sodipodi="http://sodipodi.sourceforge.net/DTD/sodipodi-0.dtd">
 <sodipodi:namedview bordercolor="#666666" borderopacity="1" gridtolerance="10" guidetolerance="10" inkscape:current-layer="svg2" inkscape:cx="335" inkscape:cy="69" inkscape:pageopacity="0" inkscape:pageshadow="2" inkscape:window-height="1014" inkscape:window-maximized="1" inkscape:window-width="1920" inkscape:window-x="0" inkscape:window-y="36" inkscape:zoom="1.8985075" objecttolerance="10" pagecolor="#ffffff" showgrid="false"/>
 <title>OpenBSD logo</title>
 <metadata>
  <rdf:RDF>
   <cc:Work rdf:about="">
    <dc:format>image/svg+xml</dc:format>
    <dc:type rdf:resource="http://purl.org/dc/dcmitype/StillImage"/>
    <dc:title>OpenBSD logo</dc:title>
    <dc:description>Converted from pdf:
http://www.openbsd.org/art4.html
Cartoon Puffy with logo below svg</dc:description>
    <dc:source>http://www.openbsd.org/art/puffy/puflogv.pdf</dc:source>
   </cc:Work>
  </rdf:RDF>
 </metadata>
 <path d="m152 111c-1.42 2.89-3.97 9.4 1.5 9.09 160 0.678 319 0.14 479 0.312h22.9c1.45-3.07 4.26-8.42 1.22-10.4-168-0.0352-336-0.0889-504-0.156l-0.531 1.19z" style="fill:#cf4229"/>
 <path d="m356 12.5c-0.993 3.47 0.571 7.25 4.59 6.69 3.76 0.0903 9.83 0.88 9.22 6.06 0.0279 21.9 0.735 44.1-0.25 65.8-2.12 5.41-11 2.09-13.5 5.65-0.929 3.21-0.148 7.89 4.15 6.95 20.9-0.0873 41.9 0.514 62.7-0.632 13.5-1.71 29.3-6.1 34.9-19.9 3.88-10.8-3.16-22-13-26.5-2.24-1.6-7.15-2.46-8.06-3.56 9.92-2.74 19.2-12.6 16-23.5-3.15-12.7-17.7-16.8-29-18.4-22.5-1.24-45.1-0.29-67.7-0.594l-0.0937 1.91zm50.4 7.03c6.92-0.975 14.8 3.6 14.6 11.2 0.676 6.42 0.384 15.4-7.31 17.4-3.99 1.32-8.25 1.28-12.4 1.56 0.587-9.62-0.831-19.9 0.875-29.2 1.23-0.753 2.74-1.07 4.28-0.969zm-3.97 39.6c8.53-0.293 19.7 1.86 22.2 11.4 2.49 8.37 0.915 20.3-9.06 22.9-4.26 0.417-11 2.63-13.9-1.56-0.548-10.9-0.256-21.8-0.438-32.8h1 0.188z" style="fill:#cf4229"/>
 <path d="m174 50.8c-0.71 0-1.8 0.176-2.78 0.438s-1.87 0.588-2.13 0.844c-0.109 0.11-0.365 0.219-0.594 0.219-0.528 0-4.32 3-6.03 4.78-1.21 1.26-3.65 4.63-3.66 5.06-2e-3 0.105-0.435 1.01-0.938 2-1.33 2.62-2.97 6.46-2.97 6.97 0 0.24-0.249 0.861-0.562 1.38-0.314 0.514-0.869 1.89-1.22 3.03-0.349 1.14-0.735 2.2-0.875 2.38-0.14 0.178-0.571 1.28-0.938 2.44-0.366 1.15-0.917 2.77-1.22 3.59-0.703 1.92-1.29 3.84-1.72 5.47s-0.656 2.94-0.656 3.72c0 0.875 0.0417 1.44 0.312 1.94 0.271 0.493 0.762 0.924 1.59 1.56 0.38 0.291 0.68 0.438 1.22 0.531 0.539 0.0932 1.32 0.125 2.63 0.125 1.42 0 2.17-0.0115 2.84-0.156 0.671-0.145 1.25-0.408 2.28-0.938 1.19-0.61 2.57-1.45 3.06-1.88 1.61-1.38 4.94-4.82 4.94-5.09 0-0.146 0.236-0.437 0.5-0.656 0.578-0.479 3.09-4.32 3.09-4.72 0-0.154 0.218-0.448 0.469-0.656 0.251-0.208 1.21-1.96 2.12-3.88 0.913-1.91 1.89-3.95 2.19-4.53 0.3-0.577 0.635-1.44 0.75-1.94 0.115-0.495 0.527-1.66 0.906-2.56 0.379-0.907 0.833-2.18 1-2.84s0.65-2.42 1.09-3.91c0.538-1.8 0.848-3.89 0.906-5.75 0.029-0.928 4e-3 -1.8-0.0937-2.53-0.0978-0.728-0.271-1.3-0.5-1.69-0.463-0.775-1.22-1.47-2.12-1.97s-1.95-0.781-2.91-0.781z" style="fill:#cf4229"/>
 <path d="m174 50.8c0.954 0 2 0.286 2.91 0.781s1.66 1.19 2.12 1.97c0.229 0.383 0.402 0.96 0.5 1.69 0.0978 0.728 0.123 1.6 0.0937 2.53-0.0579 1.86-0.368 3.95-0.906 5.75-0.444 1.48-0.927 3.25-1.09 3.91s-0.621 1.94-1 2.84c-0.379 0.907-0.791 2.07-0.906 2.56-0.115 0.495-0.45 1.36-0.75 1.94-0.3 0.577-1.27 2.62-2.19 4.53-0.913 1.91-1.87 3.67-2.12 3.88-0.251 0.208-0.469 0.503-0.469 0.656 0 0.395-2.52 4.24-3.09 4.72-0.264 0.219-0.5 0.51-0.5 0.656 0 0.271-3.32 3.71-4.94 5.09-0.492 0.421-1.88 1.27-3.06 1.88-1.03 0.529-1.61 0.793-2.28 0.938s-1.42 0.156-2.84 0.156c-1.3 0-2.09-0.0318-2.63-0.125s-0.839-0.24-1.22-0.531c-0.832-0.638-1.32-1.07-1.59-1.56s-0.312-1.06-0.312-1.94c0-0.775 0.232-2.09 0.656-3.72s1.02-3.55 1.72-5.47c0.302-0.825 0.852-2.44 1.22-3.59 0.366-1.15 0.798-2.26 0.938-2.44 0.14-0.178 0.526-1.23 0.875-2.38 0.349-1.14 0.905-2.52 1.22-3.03 0.314-0.514 0.562-1.13 0.562-1.38 0-0.505 1.64-4.35 2.97-6.97 0.503-0.99 0.935-1.9 0.938-2 9e-3 -0.428 2.44-3.8 3.66-5.06 1.71-1.78 5.5-4.78 6.03-4.78 0.229 0 0.484-0.109 0.594-0.219 0.256-0.256 1.14-0.583 2.13-0.844s2.07-0.438 2.78-0.438z" style="fill:#cf4229"/>
 <path d="m249 45.7c-0.703 0-2.07 0.423-3.31 0.938s-2.36 1.13-2.56 1.5c-0.168 0.313-0.456 0.591-0.656 0.594s-0.903 0.596-1.56 1.34c-0.66 0.748-1.52 1.74-1.91 2.19-0.824 0.939-2.76 3.72-3.38 4.88-0.232 0.436-0.931 1.79-1.56 3-0.632 1.21-1.29 2.34-1.44 2.5-0.152 0.157-0.281 0.474-0.281 0.688 0 0.214-0.398 1.22-0.875 2.25-0.477 1.03-0.916 2.21-1 2.62-0.0841 0.412-0.443 1.49-0.781 2.38l-0.594 1.59 0.656-0.188c0.363-0.103 1.26-0.318 2-0.469 0.742-0.15 2.02-0.555 2.84-0.906 0.825-0.351 1.76-0.746 2.09-0.875 1.4-0.548 5.17-2.54 5.72-3.03 0.33-0.292 0.764-0.563 0.969-0.625 0.419-0.127 1.42-0.943 2.5-1.97s2.22-2.27 2.97-3.25c0.831-1.1 1.57-2.31 2.19-3.56s1.09-2.55 1.44-3.78 0.563-2.38 0.594-3.41c0.0308-1.03-0.101-1.91-0.438-2.56-0.265-0.512-0.82-0.984-1.47-1.31s-1.41-0.531-2.16-0.531z" style="fill:#cf4229"/>
 <path d="m249 45.7c0.746 0 1.51 0.203 2.16 0.531s1.2 0.801 1.47 1.31c0.336 0.651 0.468 1.53 0.438 2.56-0.0308 1.03-0.246 2.18-0.594 3.41s-0.823 2.53-1.44 3.78-1.36 2.47-2.19 3.56c-0.745 0.982-1.89 2.22-2.97 3.25s-2.08 1.84-2.5 1.97c-0.205 0.0622-0.639 0.333-0.969 0.625-0.552 0.488-4.32 2.48-5.72 3.03-0.33 0.129-1.27 0.524-2.09 0.875-0.825 0.351-2.1 0.756-2.84 0.906-0.742 0.15-1.64 0.365-2 0.469l-0.656 0.188 0.594-1.59c0.338-0.883 0.697-1.96 0.781-2.38 0.084-0.412 0.523-1.59 1-2.62 0.477-1.03 0.875-2.04 0.875-2.25 0-0.214 0.129-0.531 0.281-0.688 0.152-0.157 0.806-1.29 1.44-2.5 0.632-1.21 1.33-2.56 1.56-3 0.613-1.15 2.55-3.94 3.38-4.88 0.39-0.445 1.25-1.44 1.91-2.19 0.66-0.748 1.36-1.34 1.56-1.34 0.2-3e-3 0.489-0.281 0.656-0.594 0.2-0.373 1.32-0.986 2.56-1.5s2.61-0.938 3.31-0.938z" style="fill:#cf4229"/>
 <path d="m540 12.5c-1.14 3.46 0.698 7.37 4.71 6.8 3.71-0.0121 9.43 1.22 8.28 6.13-0.0393 22 0.568 44.4-0.336 66.3-2.84 3.77-8.39 3.34-12.6 3.94-0.96 3.67-0.547 9.32 4.63 8.09 20.3-0.244 40.7 0.764 60.9-0.781 18.3-2.23 37.6-11 45.2-28.8 4.58-10.3 4.96-22.7 1.1-33.2-6.55-17.9-25.8-27.3-43.7-29.5-22.3-1.73-44.8-0.31-67.2-0.781-1.65-0.747-0.666 1.27-1 1.91zm51.3 7.41c10.5-0.478 20.9 5.19 25.1 14.9 5.61 11.6 5.17 25.1 3.09 37.6-1.75 10.6-10.4 20.3-21.8 21-4.03-0.28-10 2.23-12.8-1.69 0.362-23.5-0.713-47.3 0.531-70.7 1.91-0.56 3.82-1.11 5.84-1.06z" style="fill:#cf4229"/>
 <path d="m532 8.4c-2.73-0.446-3.86 2.33-4.88 3.84-8.87 0.383-17.1-4.67-26.2-3.69-15-0.93-32.8 4.71-38 20.2-2.78 9.05-1.08 19.9 6.62 26 12.5 11.8 30.7 13.7 44.8 22.4 7.23 4.75 3.13 15.9-4.31 17.8-12.4 3.99-27.7-0.38-34.5-12-3.73-3.9-3.18-10.2-6.94-13.9-3.43-1.45-9.3-0.657-8.07 4.41 0.0407 10.4-1.01 21.1 0.508 31.3 1.95 2.15 6.92 1.81 8.59 0.188 1.1-5.92 7.54-2.02 11.1-1.38 17.3 4.12 38 4.16 52.5-7.53 10.1-8 12.9-23.6 5.34-34.2-8.93-12.9-25.9-15.2-39.2-21.7-7.09-2.08-18.8-7.72-13.3-16.9 6.63-7.75 19-6.14 27.3-1.97 7.72 4.1 12.2 11.8 15.8 19.3 3.07 2.58 10.4 1.57 8.99-3.75-0.0213-8.93 0.595-18-0.304-26.8-1.45-1.75-3.95-1.57-6-1.53z" style="fill:#cf4229"/>
 <path d="m136 65.4c0.14-0.442 0.257-0.775 0.375-1.19 0.284-0.99 0.761-2.49 1.06-3.31 0.302-0.825 0.725-2.1 0.906-2.84 0.181-0.742 0.66-2.55 1.09-4l0.812-2.62-0.625-0.812c-0.392-0.528-0.94-0.908-1.81-1.19-0.422-0.135-1.22-0.185-1.81-0.281v16.2z" style="fill:#cf4229"/>
 <path d="m84.9 9.46c-25 0.739-48.5 16.2-60.5 37.7-6.93 12.8-11.2 30.3-2 43.1 10.6 15.3 31.9 17.9 49.1 14.7 24.9-4.53 46.8-22.7 55.7-46.4 5.14-13.4 3.49-31.2-8.78-39.9-9.16-7.62-21.8-9.9-33.6-9.19zm2.13 9.38c8.03-0.833 15.6 5.99 14.1 14.3-0.84 14.5-6.17 28.5-13 41.2-6.05 11-16.2 23.1-30.1 22.2-7.59 0.244-13-7.1-12.4-14.4 2.04-18.9 8.99-38.1 21.2-52.7 5.19-5.78 12-10.6 20.1-10.5z" style="fill:#f2ca30"/>
 <path d="m83.7 11.4c-0.37 6e-3 -0.49 0.0839-0.812 0.0937 1.34-0.0449 2.52-0.0927 5-0.0937-1.73 7.5e-4 -3.07-0.0178-4.19 0z" style="fill:#f2ca30"/>
 <path d="m161 38.4c-10.5 1.78-21.2 2.66-31.8 3.88-0.447 5.07-0.757 9.95 5.75 8.66 2.71-0.321 3.92 1.29 2.12 3.69-6.33 20.9-13.1 42-20.2 62.8-0.981 4.53-5.4 4.23-9 4.53-3.45 1.8-2.46 9.55 2.28 8.41 13.3 0.125 26.9 0.779 40.1-0.375 3.12-2.61 1.51-9.66-3.47-8.28-2.65-0.0933-7.06-0.198-5.03-4.19 1.15-4.62 2.91-9.68 4.53-13.8 16.5 5.74 34.1-3.95 44.4-16.5 8.76-10.4 15.7-25.5 10.6-39-5.39-11.4-21.5-12.3-31.5-6.81-1.72 0.607-6.12 3.18-5.19 3 2.1-3.26 0.852-6.94-3.53-6z" style="fill:#f2ca30"/>
 <path d="m247 38.4c-21 2.26-40.8 19-44.4 40.1-1.81 9.8 2.86 20.4 12.4 23.9 14.7 6.7 33.3 2.01 43.1-10.7 2.34-2.37 6.95-7.66 2.03-9.97-3.68-3-8.26-0.773-10.3 2.97-4.36 5.33-13.8 10.1-19.7 4.44-1.8-2.6-2.06-6.83-0.781-9.41 14.7-2.43 31.5-6.74 39.8-20.2 4.83-7.34 0.416-17.8-8.03-19.9-4.45-1.88-9.32-1.34-14-1.34z" style="fill:#f2ca30"/>
 <path d="m311 38.4c-10.8 2.22-21.9 2.61-32.7 4.09-2.56 2.32-1.88 8.78 2.56 8.25 2.25 0.118 7.04 2e-3 4.16 3.71-4.46 15.7-11.5 31-15.5 46.9 1.48 4.61 8.41 1.45 11.9 2.44 4.35-1.23 12.5 2.84 13.3-3.33 5.72-16.4 12.2-34.1 26.1-45.1 1.4-1.09 6.15-4.08 6.42-1.47-4.77 12.9-11.5 24.9-13.8 38.6-1.33 7.13 5.29 12.9 12.2 12.4 12.7 1.06 23.1-8.21 29.3-18.3 1.46-3.86-3.9-5.78-6.84-5.47-3.43 2.91-5.74 7.16-9.5 9.34 4.02-12.8 11.8-24.7 13.6-38.1 1.62-7.76-5.35-15.1-13.2-13.9-11.6-1.5-21.4 6.23-28.6 14.3 0.824-4.48 5.67-9.26 3.31-13.8-0.842-0.527-1.81-0.64-2.78-0.531z" style="fill:#f2ca30"/>
 <path d="m249 45.7c1.49 0 3.1 0.82 3.62 1.84 1.35 2.6-0.456 8.93-3.78 13.3-1.49 1.96-4.63 4.96-5.47 5.22-0.205 0.0622-0.639 0.333-0.969 0.625-0.552 0.488-4.32 2.48-5.72 3.03-0.33 0.129-1.27 0.524-2.09 0.875-0.825 0.351-2.1 0.756-2.84 0.906-0.742 0.15-1.64 0.365-2 0.469l-0.656 0.188 0.594-1.59c0.338-0.883 0.697-1.96 0.781-2.38 0.084-0.412 0.523-1.59 1-2.62 0.477-1.03 0.875-2.04 0.875-2.25 0-0.214 0.129-0.531 0.281-0.688 0.152-0.157 0.806-1.29 1.44-2.5 0.632-1.21 1.33-2.56 1.56-3 0.613-1.15 2.55-3.94 3.38-4.88 0.39-0.445 1.25-1.44 1.91-2.19 0.66-0.748 1.36-1.34 1.56-1.34 0.2-3e-3 0.489-0.281 0.656-0.594 0.4-0.747 4.47-2.44 5.88-2.44z" style="fill:#f2ca30"/>
 <path d="m174 50.8c1.91 0 4.1 1.2 5.03 2.75 0.916 1.53 0.764 6.37-0.312 9.97-0.444 1.48-0.927 3.25-1.09 3.91s-0.621 1.94-1 2.84c-0.379 0.907-0.791 2.07-0.906 2.56-0.115 0.495-0.45 1.36-0.75 1.94-0.3 0.577-1.27 2.62-2.19 4.53-0.913 1.91-1.87 3.67-2.12 3.88-0.251 0.208-0.469 0.503-0.469 0.656 0 0.395-2.52 4.24-3.09 4.72-0.264 0.219-0.5 0.51-0.5 0.656 0 0.271-3.32 3.71-4.94 5.09-0.492 0.421-1.88 1.27-3.06 1.88-2.06 1.06-2.29 1.09-5.12 1.09-2.61 0-3.08-0.0736-3.84-0.656-1.66-1.28-1.91-1.75-1.91-3.5 0-1.55 0.97-5.35 2.38-9.19 0.302-0.825 0.852-2.44 1.22-3.59 0.366-1.15 0.798-2.26 0.938-2.44 0.14-0.178 0.526-1.23 0.875-2.38 0.349-1.14 0.905-2.52 1.22-3.03 0.314-0.514 0.562-1.13 0.562-1.38 0-0.505 1.64-4.35 2.97-6.97 0.503-0.99 0.935-1.9 0.938-2 9e-3 -0.428 2.44-3.8 3.66-5.06 1.71-1.78 5.5-4.78 6.03-4.78 0.229 0 0.484-0.109 0.594-0.219 0.512-0.512 3.49-1.28 4.91-1.28z" style="fill:#f2ca30"/>
 <path d="m8.09 111c-1.1 2.64-4.24 8.73 0.688 9.09 30.5 0.213 61.1 0.69 91.5-0.219 2.99-2.09 3-6.72 3.06-10.1h-94.8l-0.5 1.25z" style="fill:#cf4229"/>
 <path d="m107 138c-2.04-0.492-4.57-2.25-5.58-3.88-0.345-0.559-0.746-1.02-0.89-1.02-0.144 0-0.353-0.506-0.463-1.12s-0.408-1.36-0.66-1.65c-0.433-0.495-2.86-0.525-43.1-0.528-46.2-4e-3 -43.9 0.0769-46.8-1.62-0.674-0.395-1.49-1.02-1.82-1.38-0.329-0.364-0.978-0.858-1.44-1.1-2.24-1.16-4.55-4-5.21-6.4-0.841-3.07-0.25-9.5 0.968-10.5 0.24-0.199 0.436-0.52 0.436-0.714 0-0.194 0.506-0.821 1.12-1.39 3.31-3.07 5.19-3.57 13.5-3.57 4.74-4e-3 6.12-0.0921 6.23-0.398 0.084-0.219-0.934-1.52-2.3-2.92-1.35-1.39-2.79-3.07-3.22-3.73-0.424-0.66-1.01-1.47-1.3-1.8-0.29-0.333-0.852-1.22-1.25-1.96-0.397-0.746-0.87-1.62-1.05-1.94-1.15-2.05-2.73-6.25-2.75-7.34-8e-3 -0.412-0.282-1.61-0.61-2.65-0.765-2.44-0.831-9.28-0.121-12.5 0.256-1.15 0.511-2.78 0.568-3.61 0.0941-1.38 1.03-5.1 1.66-6.58 0.139-0.33 0.341-1 0.449-1.5 0.337-1.55 2.23-6.25 3.2-7.95 0.141-0.247 0.389-0.787 0.551-1.2s0.497-1.09 0.744-1.5c0.247-0.412 0.667-1.21 0.932-1.78 0.265-0.567 0.808-1.46 1.21-1.98 0.397-0.521 0.722-1.05 0.722-1.18 0-0.129 0.776-1.31 1.72-2.62 4.07-5.62 8.92-10.9 14-15.3 2.82-2.44 8.56-6.71 9.42-7.02 0.272-0.0953 0.764-0.41 1.09-0.699 0.33-0.289 1.88-1.19 3.45-2 1.57-0.811 3.19-1.69 3.6-1.96 0.411-0.266 1.44-0.754 2.28-1.08 0.845-0.331 2.13-0.865 2.85-1.19 2.65-1.18 7.32-2.82 9.56-3.34 10.3-2.43 10.9-2.51 20.4-2.51 9.52-5e-3 9.39-0.0216 19.2 2.51 0.588 0.152 1.47 0.482 1.95 0.734 0.484 0.252 1.02 0.46 1.19 0.461 0.54 3e-3 4.52 1.76 6.44 2.85 1.02 0.579 1.96 1.05 2.09 1.05 0.124 0 0.469 0.27 0.768 0.6 0.299 0.33 0.712 0.6 0.918 0.6 0.206 0 1.57 0.99 3.03 2.2 2.71 2.24 5.22 4.85 7.28 7.54 2.01 2.64 5.41 9.89 5.41 11.5 0 1.68 0.363 1.8 4.5 1.48 5.17-0.404 11.3-1.18 19.5-2.5 3.87-0.617 6.31-0.217 8.75 1.44 0.897 0.607 0.529 0.655 5.17-0.685 5.56-1.61 14.8-1.33 19.2 0.57 0.33 0.143 1.37 0.524 2.31 0.846 0.938 0.322 2.69 1.23 3.9 2.02 2.27 1.48 6.54 5.41 6.54 6.02 0 0.19 0.21 0.52 0.467 0.734 0.257 0.213 0.934 1.41 1.5 2.66 0.57 1.25 1.15 2.48 1.29 2.72 0.492 0.877 1.27 0.662 2.64-0.728 1.47-1.49 6.18-5.14 8.63-6.67 1.31-0.824 2.79-1.64 6.91-3.8 1.61-0.843 3.63-1.7 4.01-1.7 0.204 0 0.747-0.195 1.21-0.434 2.23-1.15 9.7-2.78 14.7-3.19 8.82-0.735 16.8 1.14 22.6 5.33 1.65 1.18 1.83 1.2 3.06 0.322 2.14-1.53 3.16-1.8 7.85-2.04 2.47-0.128 5.44-0.376 6.6-0.552 1.15-0.176 3.92-0.462 6.15-0.636 4.67-0.365 6.96-0.694 14.8-2.12 2.83-0.513 6-0.188 7.91 0.811 0.888 0.464 1.99 1.22 2.45 1.68 0.949 0.949 1.45 1.02 2.67 0.394 2.6-1.35 7.94-2.78 11.8-3.19 5.75-0.597 11.4 0.28 16.1 2.5 2.06 0.974 2.98 1.65 4.8 3.51 2.39 2.45 4.12 5.36 4.52 7.61 0.123 0.688 0.452 2.06 0.732 3.05 0.587 2.08 0.458 5.53-0.281 7.5-0.248 0.66-0.456 1.61-0.463 2.11-0.012 0.852-2.82 9.53-3.29 10.2-0.119 0.165-0.389 0.907-0.6 1.65s-0.487 1.48-0.613 1.65c-0.487 0.637-1.26 3.51-1.01 3.76 0.143 0.143 1.34 0.803 2.66 1.47 1.32 0.664 2.9 1.63 3.51 2.15 2.19 1.87 2.05 3.63 1.97-25.6l-0.077-26.2-2.85-0.184c-1.57-0.101-3.25-0.29-3.75-0.421-2.43-0.641-4.74-2.55-6.29-5.19l-1.06-1.8v-4.04c0-3.89 0.033-4.11 0.894-5.8 1.67-3.29 3.78-4.84 7.61-5.62 3.36-0.684 48.7-0.707 59.3-0.03 7.32 0.468 12.6 1.09 15.1 1.8 0.825 0.227 2.04 0.508 2.7 0.624 1.63 0.286 7.76 2.41 9.55 3.3 0.797 0.399 1.62 0.725 1.84 0.725s0.551 0.196 0.75 0.435c0.198 0.239 0.924 0.71 1.61 1.05 0.688 0.336 1.93 1.15 2.75 1.82 0.825 0.663 1.84 1.43 2.25 1.7 0.866 0.569 3.69 3.8 4.54 5.2 0.788 1.3 1.41 1.08 2.58-0.898 0.534-0.905 1.72-2.42 2.63-3.37 0.91-0.95 1.67-1.83 1.68-1.95 0.04-0.385 4.22-3.79 5.65-4.6 0.754-0.428 1.9-1.14 2.54-1.57 0.642-0.438 1.32-0.796 1.51-0.796 0.192 0 0.506-0.158 0.698-0.35 0.193-0.193 0.793-0.513 1.33-0.712 2.53-0.929 5.66-1.94 7.43-2.4 1.07-0.278 2.29-0.616 2.7-0.751 0.412-0.135 2.03-0.393 3.6-0.573 1.57-0.18 3.79-0.454 4.95-0.61 2.86-0.386 9.85-0.375 12 0.0183 0.956 0.177 3.17 0.499 4.93 0.716 1.76 0.217 4.81 0.822 6.79 1.34 1.98 0.523 3.9 1.03 4.27 1.12 0.488 0.122 1.02-0.143 1.99-0.991 2.19-1.92 4.38-2.51 9.31-2.51 3.51 6e-5 4.46 0.103 6 0.648 1.01 0.357 1.96 0.761 2.12 0.9 0.157 0.138 11.9 0.251 26.1 0.251 29.2 0 34.9 0.228 45.4 1.81 1.23 0.185 2.46 0.453 2.72 0.595 0.265 0.142 1.21 0.343 2.11 0.446 0.895 0.103 2.1 0.367 2.68 0.585 0.577 0.218 2.8 0.964 4.95 1.66 2.14 0.693 4.03 1.38 4.18 1.53 0.157 0.149 0.574 0.271 0.928 0.271 0.354 0 0.888 0.27 1.19 0.6 0.298 0.33 0.832 0.6 1.19 0.6 0.354 0 0.772 0.125 0.928 0.277 0.157 0.153 1.38 0.819 2.71 1.48 1.33 0.662 2.6 1.41 2.81 1.67 0.214 0.257 0.493 0.468 0.621 0.468 0.375 0 3.02 1.85 5.11 3.58 2.83 2.34 4.61 4.11 7.34 7.33 2 2.36 4.71 6.46 5.09 7.69 0.125 0.412 0.402 0.952 0.614 1.2 0.79 0.919 2.68 6.23 3.88 10.9 0.715 2.78 0.76 3.4 0.76 10.5 0 5.43-0.114 7.98-0.406 9.04-0.224 0.813-0.57 2.22-0.771 3.13-0.463 2.09-1.46 5.19-2.17 6.77-0.304 0.671-0.552 1.44-0.552 1.71s-0.138 0.573-0.307 0.677c-0.169 0.104-0.691 1.04-1.16 2.07s-1.41 2.72-2.09 3.75-1.24 1.94-1.24 2.02c0 0.265-3.04 3.83-3.48 4.09-0.228 0.132-0.415 0.399-0.415 0.593 0 0.378-1.15 1.49-4.89 4.75-2.11 1.83-5.25 4.06-8.4 5.95-0.709 0.426-1.1 0.871-1.05 1.18 0.084 0.439 1.18 0.509 10.4 0.664 6.75 0.113 10.8 0.301 11.7 0.543 1.64 0.448 4.08 1.97 4.71 2.93 0.254 0.387 0.669 0.703 0.923 0.703 1.1 0 4.02 2.83 4.95 4.8 0.561 1.19 0.639 1.9 0.65 5.91 0.01 3.26-0.094 4.67-0.362 4.93-0.206 0.206-0.375 0.565-0.375 0.798 0 1.26-4.31 5.02-6.45 5.62-0.495 0.14-114 0.328-251 0.418l-250 0.163-1.15 2.33c-1.56 3.16-3.83 5.06-6.88 5.74-2.98 0.672-43.2 0.649-46-0.0261l3.6e-4 2.6e-4zm43-10.1c0.373-0.373 0.497-3.13 0.178-3.96-0.135-0.352-0.618-0.478-1.87-0.49-2.7-0.0252-6.27-0.717-7.18-1.39-0.66-0.491-0.834-0.887-0.912-2.08-0.115-1.74 0.358-4.49 1.13-6.57 0.307-0.825 0.781-2.24 1.05-3.15 0.272-0.907 0.744-2.32 1.05-3.15s0.853-2.48 1.22-3.68c0.365-1.2 0.792-2.26 0.948-2.35 0.156-0.0965 1.05 0.0937 1.99 0.423 4.06 1.43 4.85 1.56 9.1 1.56 3.65 0 4.65-0.116 7.98-0.931 2.09-0.512 4.28-1.18 4.86-1.48 0.58-0.3 1.66-0.783 2.4-1.07 0.742-0.291 1.56-0.707 1.82-0.923s0.625-0.394 0.81-0.394c0.185 0 0.917-0.371 1.63-0.825 0.709-0.454 1.51-0.96 1.79-1.12 0.933-0.562 5.5-4.13 6.48-5.07 7.92-7.54 12.5-14.5 15.4-23.4 2.35-7.14 2.34-14.9-3e-3 -19.3-2.19-4.08-4.38-5.86-9.28-7.56-2.34-0.811-2.79-0.865-7.22-0.864-4.58 0-4.82 0.0327-7.76 1.02-4.78 1.61-9.07 4.3-13.4 8.41-0.967 0.915-1.8 1.66-1.86 1.66-0.178 0 0.501-1.92 1.06-3 0.3-0.577 0.755-1.66 1.01-2.4 0.257-0.742 0.799-2.15 1.2-3.12 0.405-0.974 0.666-1.95 0.581-2.17-0.221-0.576-2.31-0.511-5.42 0.169-1.44 0.315-4.31 0.724-6.37 0.908-2.06 0.184-5.84 0.601-8.4 0.926-2.56 0.325-6.34 0.76-8.4 0.968l-3.75 0.377v2.25 2.25l2.76 0.229c3.4 0.281 4.8 0.729 5.58 1.78l0.604 0.814-0.788 2.63c-0.434 1.45-0.937 3.24-1.12 3.98-0.181 0.742-0.577 2.02-0.879 2.85-0.302 0.825-0.781 2.31-1.06 3.3-0.284 0.99-0.697 2.27-0.919 2.85-0.222 0.577-0.635 1.93-0.919 3s-0.762 2.53-1.06 3.25-0.548 1.51-0.548 1.78c0 0.428-0.33 1.44-2.22 6.82-0.29 0.825-0.787 2.44-1.1 3.6-0.318 1.15-0.839 2.77-1.16 3.6s-1.21 3.52-1.98 6c-0.77 2.47-1.64 5.17-1.93 6-1.19 3.35-2.17 6.38-2.54 7.82-0.212 0.836-0.522 1.78-0.689 2.1-0.166 0.319-0.534 1.51-0.817 2.66-1.03 4.15-3.77 8.78-5.5 9.29-1.18 0.344-4.16 0.78-5.33 0.78-0.875 0-1.32 0.146-1.44 0.474-0.319 0.832-0.195 3.59 0.178 3.96 0.52 0.52 40.5 0.52 41 0h-4e-4zm-0.125-31.5c-1.66-1.28-1.92-1.73-1.92-3.48 0-1.55 0.993-5.36 2.4-9.2 0.302-0.825 0.849-2.44 1.22-3.6 0.366-1.15 0.781-2.24 0.92-2.42 0.14-0.178 0.54-1.26 0.889-2.4 0.349-1.14 0.892-2.5 1.21-3.01 0.314-0.514 0.571-1.13 0.571-1.37 0-0.505 1.65-4.37 2.98-6.99 0.503-0.99 0.916-1.89 0.918-1.99 9e-3 -0.428 2.44-3.8 3.66-5.06 1.71-1.78 5.5-4.79 6.03-4.79 0.229 0 0.505-0.0895 0.615-0.199 0.512-0.512 3.49-1.3 4.91-1.3 1.91 0 4.11 1.2 5.03 2.75 0.916 1.53 0.765 6.39-0.312 9.99-0.444 1.48-0.943 3.24-1.11 3.9s-0.613 1.94-0.992 2.85c-0.379 0.907-0.783 2.05-0.899 2.55-0.115 0.495-0.455 1.37-0.755 1.95-0.3 0.577-1.29 2.62-2.2 4.53-0.913 1.91-1.86 3.65-2.12 3.86-0.251 0.208-0.457 0.505-0.457 0.658 0 0.395-2.54 4.24-3.12 4.72-0.264 0.219-0.479 0.517-0.479 0.663 0 0.271-3.34 3.69-4.95 5.08-0.492 0.421-1.87 1.26-3.05 1.87-2.06 1.06-2.29 1.11-5.13 1.11-2.61 0-3.08-0.0814-3.84-0.664zm-49.6 21.5c0.558-0.672 1.52-3.86 1.53-5.07l7e-3 -1.12h-45.7-45.7l-0.78 1.9c-0.883 2.15-1.28 3.91-0.988 4.38 0.138 0.224 13.8 0.319 45.7 0.319 38 0 45.6-0.0675 45.9-0.407h3.8e-4zm554-0.37c0.752-1.65 1.57-4.43 1.48-5.03l-0.091-0.637-502-0.15-0.611 1.42c-0.795 1.85-1.3 4.08-1.07 4.69 0.169 0.441 21 0.481 251 0.481h251l0.354-0.777 1e-4 -1e-5zm-541-9.79c0.119-0.432 1.79-5.63 2.24-6.97 0.835-2.48 1.65-5.05 2.32-7.35 0.413-1.4 0.893-2.84 1.07-3.2 0.728-1.49-0.715-1.76-2.02-0.369-1.08 1.15-8.1 7.16-8.36 7.16-0.102 0-1.03 0.645-2.05 1.43-1.03 0.788-2.58 1.89-3.45 2.44-2.13 1.35-1.98 1.79 0.876 2.61 2.81 0.806 3.43 1.12 4.79 2.42 1.86 1.77 4.34 2.76 4.59 1.82zm-44.8-4.56c5.37-0.831 8.65-1.6 11.2-2.6 0.773-0.31 1.69-0.564 2.03-0.564 0.343 0 0.858-0.126 1.14-0.281 0.286-0.155 1.2-0.571 2.02-0.926 5.68-2.44 8.71-4.06 13.3-7.13 4.62-3.06 10.7-8.41 14.5-12.8 1.14-1.32 2.34-2.68 2.68-3.03 0.336-0.348 0.837-0.973 1.11-1.39 0.276-0.416 1.05-1.55 1.71-2.52 0.666-0.968 1.65-2.5 2.18-3.41 0.536-0.907 1.1-1.85 1.25-2.1 0.592-0.952 3.9-8.09 3.9-8.42 0-0.189 0.387-1.51 0.86-2.94 1.03-3.12 1.94-9.14 1.91-12.6-0.0348-3.73-0.995-8.74-2.15-11.2-0.305-0.66-0.731-1.6-0.947-2.1-0.556-1.28-2.13-3.75-2.39-3.75-0.118 0-0.439-0.472-0.713-1.05-0.274-0.577-0.606-1.05-0.738-1.05-0.132 0-0.969-0.709-1.86-1.57-2.16-2.1-7.04-5.62-7.78-5.62-0.141 0-1.17-0.472-2.3-1.05-1.12-0.576-2.27-1.05-2.56-1.05-0.283 0-0.958-0.191-1.5-0.422-1.32-0.565-2.79-0.954-6.53-1.74-2.76-0.576-4.08-0.657-10.6-0.655-6.92 3e-3 -7.81 0.0649-11.5 0.807-2.23 0.442-4.52 0.933-5.1 1.09-0.577 0.158-1.66 0.446-2.4 0.639-1.72 0.447-6.21 2.17-8.58 3.3-1.01 0.48-1.94 0.872-2.06 0.872-0.414 0-5.65 3.06-8.66 5.07-1.63 1.09-3.19 2.11-3.47 2.28-0.278 0.166-0.742 0.538-1.03 0.827-0.289 0.289-0.752 0.646-1.03 0.795-1.38 0.74-6.9 6.09-10.1 9.8-2.72 3.15-3.03 3.54-3.47 4.37-0.202 0.384-0.449 0.766-0.549 0.848-0.166 0.138-0.819 1.11-2.31 3.45-1.24 1.95-2.49 4.37-4.49 8.7-0.724 1.57-2.13 6.17-3.02 9.9-0.785 3.27-0.863 4.08-0.863 9 0 5.33 0.0131 5.44 0.985 8.23 1.37 3.95 2.54 6.2 4.46 8.6 0.908 1.14 1.74 2.2 1.85 2.36 0.328 0.486 4.77 4.35 5 4.35 0.117 0 0.704 0.373 1.3 0.829 2.05 1.55 7.82 4.13 10.7 4.78 0.99 0.222 2.74 0.616 3.9 0.875 1.15 0.26 3.31 0.585 4.8 0.724 3.67 0.343 12.6 0.0994 16-0.44zm-12.1-5.29c-2.63-0.445-4.17-0.992-5.84-2.06-3.55-2.28-5.37-5.41-6.18-10.6-0.474-3.04-0.473-3.5 9e-3 -7.49 0.282-2.34 0.758-5.13 1.06-6.2 0.299-1.07 0.772-2.96 1.05-4.2 1.25-5.53 5.46-17.4 7.63-21.6 0.13-0.247 0.886-1.73 1.68-3.3 0.795-1.57 1.92-3.59 2.49-4.5 2.53-3.98 3.82-5.86 4.17-6.09 0.209-0.132 0.38-0.385 0.38-0.563 0-0.682 5.06-6.09 7.81-8.34 2.17-1.78 5.42-3.9 5.96-3.9 0.342 0 0.62-0.118 2.42-1.03 1.9-0.958 7.62-1.73 10.2-1.37 5.68 0.776 7.81 1.68 10.4 4.42 1.77 1.86 2.25 2.69 3.17 5.47 0.542 1.65 0.636 2.62 0.612 6.3-0.0185 2.82-0.189 4.98-0.486 6.15-0.252 0.99-0.547 2.47-0.656 3.3-0.223 1.68-0.528 2.99-1.36 5.85-0.312 1.07-0.838 2.89-1.17 4.05-0.871 3.04-2.24 7-2.76 8.02-0.148 0.286-0.269 0.71-0.269 0.941 0 0.487-2.6 6.32-4.42 9.93-0.25 0.495-0.723 1.44-1.05 2.1s-0.749 1.39-0.936 1.61c-0.463 0.566-2.21 3.6-2.66 4.61-0.2 0.454-0.45 0.825-0.556 0.825-0.106 0-0.76 0.877-1.45 1.95s-1.38 1.95-1.52 1.95c-0.143 0-0.344 0.262-0.446 0.583-0.208 0.656-5.43 5.98-7.22 7.36-6.43 4.97-13.3 6.97-20.1 5.82h-4.5e-4zm7.69-8.56c1.22-0.27 2.39-0.628 2.6-0.797 0.213-0.169 1.06-0.616 1.87-0.994 2.15-0.994 8-6.97 10.6-10.8 1.11-1.66 2.02-3.11 2.02-3.24 0-0.123 0.405-0.812 0.9-1.53 0.495-0.719 0.9-1.38 0.9-1.46 0-0.0842 0.867-1.95 1.93-4.14 6.02-12.5 10.3-29.1 9.34-35.8-0.147-0.981-0.515-1.73-1.25-2.54-0.947-1.05-1.22-1.17-3.02-1.37-3.46-0.371-7.06 0.446-9.71 2.21-3.66 2.44-4.52 3.19-7.08 6.21-1.32 1.56-5.01 6.73-5.53 7.75-0.0981 0.192-0.366 0.686-0.595 1.1-0.991 1.78-3 5.61-3.3 6.3-0.182 0.412-0.513 1.15-0.734 1.65-0.991 2.21-1.59 3.69-1.97 4.8-0.221 0.66-0.575 1.47-0.787 1.79-0.212 0.325-0.385 0.838-0.385 1.14s-0.27 1.11-0.6 1.79c-0.33 0.683-0.6 1.48-0.6 1.77 0 0.289-0.135 0.609-0.3 0.711-0.165 0.102-0.3 0.574-0.3 1.05s-0.119 0.938-0.265 1.03c-0.146 0.0902-0.334 0.537-0.417 0.992-0.0833 0.456-0.423 1.77-0.755 2.93-0.332 1.15-0.696 2.71-0.808 3.45-0.113 0.742-0.396 2.02-0.629 2.83-0.281 0.978-0.425 2.99-0.425 5.93 0 3.84 0.0813 4.62 0.592 5.62 1.03 2.02 4.27 2.62 8.74 1.62zm405 12.6c0.903-1.64 1.17-1.89 2.32-2.21 1.44-0.404 3.88-0.101 7.17 0.896 7.81 2.36 13.2 3.14 21.7 3.14 7.85 0 10.7-0.339 17.7-2.12 2.88-0.732 7.99-3.01 10.9-4.88 3.14-1.99 7.1-6.1 8.89-9.22 1.46-2.56 1.78-3.39 2.97-7.89 0.35-1.33 0.361-6.11 0.017-7.5-1.17-4.7-2.22-7.25-4.06-9.84-1.07-1.5-4.76-5.39-5.75-6.05-0.371-0.247-1.46-0.994-2.42-1.66-2.05-1.42-5.82-3.28-9.39-4.65-2.77-1.06-6.1-2.38-8.7-3.45-0.907-0.374-2.93-1.18-4.5-1.79-3.66-1.42-4.13-1.62-5.44-2.29-0.6-0.308-1.26-0.56-1.48-0.56-0.611 0-6.52-2.72-10.2-4.7-1.71-0.917-3.89-3.07-4.81-4.75-0.93-1.7-0.985-1.97-0.979-4.8 0.01-2.65 0.099-3.18 0.8-4.53 0.769-1.48 2.88-4.02 3.34-4.02 0.126 0 0.817-0.405 1.54-0.9s1.53-0.9 1.8-0.9 0.783-0.157 1.14-0.348c1.3-0.698 5.5-1.44 8.16-1.43 3.86 3e-3 9.64 1.28 12.6 2.8 0.849 0.43 1.63 0.781 1.73 0.781 0.693 0 6.9 4.73 7.87 6 0.191 0.249 0.78 0.925 1.31 1.5 2.42 2.65 4.71 6.28 6.14 9.75 1.28 3.1 1.34 3.15 4.09 3.15 2.01 0 2.39-0.0826 2.65-0.58 0.386-0.721 0.422-27.6 0.038-28.2-0.322-0.508-2.81-0.779-4.64-0.505-1.25 0.188-1.38 0.293-1.85 1.52-0.841 2.2-1.25 2.4-4.74 2.36-2.2-0.0294-3.54-0.212-4.87-0.662-1.78-0.606-4.53-1.27-10.3-2.5-2.36-0.502-4.03-0.608-9.75-0.625-7.88-0.0228-10.5 0.337-17.4 2.38-2.5 0.744-6.75 2.74-6.75 3.17 0 0.124-0.196 0.225-0.435 0.225-0.5 0-3.8 2.61-5.07 4.01-2.98 3.28-5.31 7.57-6.05 11.1-0.53 2.54-0.599 9.14-0.117 11.2 1.72 7.42 9.29 14.5 21 19.7 1.4 0.623 3.53 1.59 4.72 2.15 1.2 0.558 2.38 1.01 2.64 1.01 0.254 0 0.962 0.255 1.57 0.566 0.612 0.312 1.72 0.74 2.46 0.952 0.742 0.212 1.48 0.476 1.65 0.587 0.165 0.111 1.99 0.841 4.05 1.62 3.9 1.48 4.65 1.78 6.9 2.81 0.742 0.34 1.84 0.827 2.43 1.08 0.596 0.255 1.25 0.668 1.46 0.918 0.208 0.25 0.49 0.455 0.626 0.455 0.52 0 3 1.87 3.95 2.99 2.22 2.59 2.99 5.67 2.33 9.3-0.934 5.12-5.17 9.16-11.4 10.9-1.91 0.526-3.1 0.617-7.95 0.608-4.41-8e-3 -6.04-0.12-7.2-0.496-0.825-0.267-1.77-0.488-2.1-0.49-1.05-7e-3 -6.06-2.34-8.64-4.02-5.75-3.75-11-11.1-13.3-18.6-1.24-4.08-1.12-3.96-3.88-4.06-1.99-0.074-2.45-3e-3 -2.77 0.432-0.499 0.682-0.56 31.6-0.064 32.5 0.282 0.527 0.585 0.582 2.77 0.505l2.45-0.0868 1.02-1.85-7e-4 -2e-5zm-267 0.635c0.105-0.274-0.416-1.34-1.28-2.62-0.804-1.19-1.87-2.9-2.36-3.81-0.495-0.906-1.12-1.69-1.38-1.74-0.269-0.0505-1.49 0.873-2.77 2.1-1.26 1.2-2.76 2.59-3.35 3.09-0.583 0.495-1.48 1.26-2 1.7-0.599 0.515-0.872 0.974-0.757 1.27 0.156 0.407 1.08 0.47 6.95 0.47 5.81 0 6.79-0.065 6.94-0.461zm35.1-0.168c3.24-0.695 4.88-1.18 6.23-1.86 1.32-0.657 3.28-1.66 4.09-2.08 2.3-1.21 7.25-5.51 9.61-8.34 4.75-5.72 4.79-5.88 1.55-7.36-2.54-1.16-3.3-1.01-5.06 1.01-6.66 7.67-12.2 10.4-18.9 9.4-3.77-0.56-5.89-2.32-7.11-5.9-0.832-2.44-0.55-7.96 0.476-9.32 0.144-0.191 1.1-0.439 2.12-0.551 1.02-0.112 2.9-0.462 4.16-0.778 1.26-0.316 2.62-0.574 3.02-0.574 0.864 0 6.89-1.72 10.5-2.99 2.78-0.986 9.92-4.51 10.9-5.39 0.33-0.293 1.21-0.951 1.95-1.46 4.84-3.33 8.49-8.61 8.88-12.8 0.384-4.19-0.98-7.26-4.39-9.89-1.42-1.09-2.57-1.65-5.04-2.43-3.14-0.995-3.29-1.01-8.57-1.01-4.97 0-5.68 0.0703-9.3 0.93-8.83 2.09-16.9 6.62-24 13.4-2.46 2.38-7.4 8.5-7.4 9.17 0 0.216-0.108 0.437-0.241 0.492-0.423 0.176-2.78 4.81-3.79 7.45-1.39 3.65-1.77 5.63-1.9 10-0.128 4.32 0.397 7.37 1.65 9.6 0.372 0.66 0.825 1.57 1.01 2.02 0.182 0.454 0.451 0.825 0.597 0.825 0.146 0 0.624 0.54 1.06 1.2s0.925 1.2 1.09 1.2c0.161 0 0.554 0.333 0.874 0.74 0.32 0.407 0.896 0.913 1.28 1.12 3.78 2.08 6.16 3.1 9.02 3.83 2.9 0.745 3.87 0.851 8.01 0.875 3.74 0.0213 5.33-0.104 7.65-0.603zm-7.07-32.1c0.338-0.883 0.684-1.94 0.768-2.36 0.084-0.412 0.543-1.59 1.02-2.62 0.477-1.03 0.867-2.05 0.867-2.26 0-0.214 0.124-0.517 0.276-0.674 0.152-0.157 0.793-1.28 1.42-2.49 0.632-1.21 1.34-2.56 1.57-3 0.613-1.15 2.54-3.96 3.37-4.9 0.39-0.445 1.25-1.42 1.91-2.17 0.66-0.748 1.36-1.36 1.56-1.37 0.2-3e-3 0.502-0.261 0.669-0.574 0.4-0.747 4.47-2.43 5.87-2.43 1.49 0 3.07 0.801 3.6 1.82 1.35 2.6-0.447 8.93-3.77 13.3-1.49 1.96-4.63 4.96-5.47 5.21-0.205 0.0622-0.643 0.352-0.973 0.643-0.552 0.488-4.3 2.47-5.7 3.02-0.33 0.129-1.27 0.522-2.1 0.873-0.825 0.351-2.11 0.762-2.85 0.912-0.742 0.15-1.65 0.358-2.01 0.462l-0.66 0.188 0.615-1.61zm32.2 31.7c0-1.14-1.12-1.45-1.65-0.445-0.503 0.94-0.152 1.55 0.826 1.44 0.697-0.0802 0.826-0.236 0.826-0.995zm45.6 0.631c0.088-0.23-0.239-1.61-0.727-3.07-1.13-3.39-1.59-3.48-2.77-0.556-0.833 2.06-1.08 3.45-0.682 3.85 0.11 0.11 1.06 0.2 2.11 0.2 1.36 0 1.96-0.121 2.07-0.419zm24.2-0.353c1.65-0.281 3.49-0.827 4.55-1.35 0.975-0.483 1.89-0.878 2.03-0.878s0.829-0.371 1.53-0.825c0.698-0.454 1.42-0.892 1.61-0.975 0.767-0.333 4.81-4.2 6.76-6.45 1.14-1.32 2.25-2.6 2.47-2.85 2.53-2.82 3.19-4.63 1.82-4.98-0.413-0.104-1.25-0.444-1.86-0.755-0.612-0.312-1.28-0.567-1.48-0.567s-1.26 1.05-2.35 2.32c-5.23 6.14-7.85 8.13-9.65 7.31-0.701-0.319-0.758-0.477-0.636-1.77 0.073-0.78 0.309-1.89 0.524-2.47 0.523-1.41 2.33-5.79 3.16-7.65 0.366-0.825 0.766-1.84 0.887-2.25s0.466-1.22 0.765-1.8c0.495-0.953 2.01-4.59 3.2-7.65 0.255-0.66 0.637-1.6 0.848-2.1 0.648-1.52 1.87-4.97 2.7-7.65 0.436-1.4 0.932-2.89 1.1-3.3 0.17-0.412 0.378-2.25 0.463-4.08 0.125-2.7 0.05-3.66-0.392-5.07-0.727-2.31-2.44-4.25-4.76-5.39-1.78-0.875-1.95-0.899-7.05-0.995-5.16-0.0971-5.26-0.0867-8.25 0.853-1.66 0.523-3.63 1.29-4.37 1.7-2.58 1.44-5.95 3.73-6.12 4.15-0.09 0.235-0.348 0.427-0.572 0.427-0.602 0-7.26 6.78-11 11.1-1.76 2.09-3.25 3.68-3.3 3.54-0.052-0.14 0.127-0.591 0.396-1 0.27-0.411 0.739-1.53 1.04-2.49 0.304-0.959 1.18-3.23 1.94-5.04 0.763-1.81 1.6-3.91 1.86-4.65s0.647-1.75 0.867-2.25c1.1-2.47 1.94-4.93 1.94-5.65 0-0.688-0.126-0.801-0.888-0.801-0.488 0-2.01 0.255-3.37 0.566-1.37 0.311-4.04 0.724-5.94 0.917-1.9 0.193-5.34 0.605-7.65 0.915-5.04 0.676-11 1.21-13.5 1.2-1.4-3e-3 -1.89 0.11-2.02 0.472-0.254 0.662-0.219 3.5 0.047 3.91 0.121 0.183 1.44 0.402 2.92 0.486 3.05 0.173 4.67 0.727 5.41 1.85 0.479 0.731 0.465 0.895-0.292 3.4-0.437 1.45-0.912 3.1-1.06 3.68-0.144 0.577-0.491 1.66-0.771 2.4s-0.692 1.96-0.915 2.7c-0.223 0.742-0.956 2.9-1.63 4.8-1.97 5.56-2.99 8.44-3.59 10.2-0.311 0.907-1.26 3.61-2.11 6-0.849 2.39-1.66 4.75-1.8 5.25s-1.1 3.34-2.12 6.33c-1.05 3.06-1.78 5.64-1.68 5.93 0.175 0.456 1.1 0.493 10.4 0.422l10.2-0.0789 1.74-5.1c0.955-2.81 1.96-5.53 2.23-6.06 0.271-0.525 0.493-1.17 0.493-1.43s0.455-1.45 1.01-2.64c0.556-1.19 1.46-3.17 2-4.41 1.86-4.22 4.29-8.97 6.08-11.9 0.524-0.858 1.39-2.31 1.93-3.22 0.538-0.915 1.09-1.66 1.23-1.66 0.137 0 0.401-0.332 0.586-0.738 0.922-2.02 6.97-8.58 9.43-10.2 0.704-0.47 1.52-1.05 1.81-1.3 0.908-0.755 4.5-2.14 5.55-2.14 1.84 0 3.45 1.36 3.17 2.7-0.192 0.936-0.849 2.68-1.79 4.73-0.397 0.87-0.722 1.73-0.722 1.91 0 0.182-0.405 1.13-0.9 2.1-0.495 0.974-0.9 1.91-0.9 2.09 0 0.175-0.405 1.19-0.9 2.26-0.495 1.07-0.9 2.05-0.9 2.19 0 0.133-0.472 1.28-1.05 2.54-0.577 1.27-1.05 2.45-1.05 2.63 0 0.181-0.405 1.19-0.9 2.23-0.495 1.05-0.9 2.11-0.9 2.36 0 0.249-0.259 1.02-0.575 1.72-0.316 0.699-0.738 1.81-0.937 2.47-0.199 0.66-0.681 2.14-1.07 3.3-1.12 3.34-1.68 7.49-1.29 9.61 0.394 2.13 0.848 3.06 2.11 4.32 1.49 1.49 2.26 1.89 4.72 2.44 2.93 0.659 5.92 0.689 9.41 0.0947l5e-4 -5e-5zm90.7-1.44c1.32-0.274 3.48-0.625 4.8-0.782 1.32-0.156 3.41-0.565 4.65-0.908 1.24-0.343 2.79-0.727 3.45-0.853s1.67-0.448 2.25-0.714c0.577-0.266 1.67-0.687 2.43-0.935 0.759-0.248 2.08-0.865 2.94-1.37 0.857-0.505 1.64-0.919 1.74-0.919 0.531 0 4.46-2.91 6.15-4.55 1.96-1.91 2.85-3.16 4.52-6.4 1.38-2.66 1.79-7.38 0.964-10.9-1.48-6.26-5.98-11.1-13.9-15.1-1.24-0.617-2.52-1.13-2.86-1.13-0.334-4e-3 -0.9-0.212-1.26-0.461-0.356-0.25-2.51-0.928-4.79-1.51-2.28-0.58-4.27-1.09-4.43-1.14-0.372-0.113 2.63-1.1 3.35-1.1 0.301 0 1.29-0.28 2.19-0.622 0.905-0.342 2.02-0.74 2.49-0.884 1.52-0.473 5.56-2.64 7.17-3.85 3.84-2.88 5.89-6.04 6.86-10.6 0.79-3.68-0.573-9.08-3.13-12.4-1.89-2.47-4.98-4.8-8.6-6.5-2.68-1.26-8.82-3.27-9.95-3.27-0.44 3e-3 -1.59-0.183-2.55-0.413-4.82-1.16-7.16-1.23-38.5-1.23h-30.4l-0.091 1.92c-0.05 1.06 0.038 2.05 0.194 2.2 0.156 0.156 2.09 0.458 4.29 0.669 5.85 0.562 8.02 1.79 9.07 5.11 0.468 1.48 0.513 4.41 0.532 34.6 0.02 30.8-0.014 33.1-0.51 34.6-0.654 1.97-2 3.33-3.93 3.97-0.8 0.264-3.28 0.787-5.5 1.16l-4.05 0.68-0.091 1.76c-0.05 0.97-0.016 1.96 0.074 2.2 0.143 0.373 4.38 0.414 31.1 0.299 27.3-0.117 31.3-0.191 33.4-0.63h8e-4zm-17.1-4.97c-3.06-0.38-4.7-1.4-5.6-3.46-0.304-0.698-0.413-4.78-0.486-18.2l-0.093-17.3h3.19c3.04 0 9.29 0.648 11.5 1.2 3.02 0.735 6.68 2.81 8.69 4.91 2.9 3.05 4.16 6.01 4.82 11.4 0.585 4.75-0.362 10.5-2.33 14.1-1.66 3.06-6.03 6.09-9.98 6.94-2.49 0.534-7.43 0.786-9.75 0.497h-3e-4zm9.45-9.02c1.34-0.674 2.14-1.59 2.87-3.28 0.484-1.12 0.579-2.04 0.571-5.55-0.01-3.9-0.065-4.33-0.792-5.86-0.431-0.907-1.1-1.94-1.49-2.3-1.21-1.11-3.18-1.95-4.67-2l-1.43-0.0493-0.079 9.59c-0.044 5.28-0.019 9.75 0.055 9.95 0.194 0.506 3.67 0.151 4.97-0.508h1e-4zm-15.5-50.7c0.106-17.7-0.038-16.8 2.77-18.1 1.49-0.703 1.98-0.774 5.39-0.774 3.51 0 3.94 0.0666 6.6 1.02 5.98 2.14 8.52 5.91 9.01 13.4 0.186 2.83-0.129 7.25-0.713 9.98-0.523 2.45-2 4.44-5.06 6.86-0.216 0.17-1.56 0.718-3 1.22-2.68 0.933-4.97 1.26-11.6 1.63l-3.54 0.199 0.093-15.4h-5e-4zm13.4 5.17c0.692-0.508 0.77-0.819 1.02-3.99 0.462-6-0.242-8.94-2.3-9.62-1.72-0.569-1.71-0.581-1.71 7.07 0 3.85 0.1 7.11 0.223 7.23 0.334 0.334 1.93-0.0559 2.78-0.681zm193 59.4c2.31-0.377 5.68-1.02 7.5-1.43 1.81-0.411 3.84-0.859 4.5-0.996 1.34-0.278 4.24-1.31 4.55-1.61 0.11-0.109 0.46-0.199 0.778-0.199 0.747 0 6.12-2.5 8.8-4.09 6.31-3.76 10.4-7.65 14.9-14.1 1.49-2.13 4.99-10.4 4.99-11.8 0-0.412 0.23-1.58 0.511-2.59 0.749-2.7 0.754-14 0.01-16.4-0.285-0.933-0.519-1.99-0.519-2.34 0-0.579-0.468-1.92-1.63-4.66-0.943-2.23-2.95-6.15-3.14-6.15-0.12 0-0.433-0.439-0.695-0.975-1.07-2.18-6.54-7.72-9.86-9.99-3.76-2.57-7.98-4.84-11.1-5.95-3.21-1.16-3.68-1.32-5.4-1.8-0.907-0.253-2.52-0.734-3.58-1.07-1.06-0.334-2.35-0.608-2.85-0.608-0.505 0-1.38-0.131-1.94-0.292-0.56-0.161-2.72-0.531-4.8-0.824-3.42-0.481-6.69-0.532-34.1-0.533h-30.3l-0.089 2.03c-0.084 1.92-0.051 2.04 0.664 2.31 0.414 0.157 2.01 0.376 3.54 0.487 2.98 0.215 5.79 1.14 7.09 2.33 0.387 0.355 0.974 1.17 1.3 1.82 0.591 1.15 0.601 1.72 0.582 35.5-0.018 33.6-0.031 34.3-0.612 35.4-0.327 0.64-1.05 1.56-1.6 2.05-1.29 1.13-5.34 2.44-8.48 2.73l-2.4 0.226-0.091 1.77c-0.05 0.971-0.017 1.96 0.073 2.19 0.141 0.368 4.31 0.413 29.6 0.323 29-0.103 29.5-0.116 33.7-0.79v-7.8e-4zm-18.2-5.45c-1.58-0.267-2.58-0.911-3.51-2.26l-0.631-0.918v-35.9c0-40.6-0.26-36.7 2.51-37.6 4.36-1.43 8.01-1.34 16.4 0.42 1.07 0.225 5.18 2.16 6 2.82 0.248 0.202 0.842 0.564 1.32 0.804 1.04 0.521 5.88 5.33 5.88 5.84 0 0.196 0.284 0.613 0.632 0.927 0.348 0.314 0.854 0.999 1.12 1.52 1.41 2.72 1.89 3.73 2.7 5.65 0.486 1.15 0.975 2.57 1.09 3.15 0.113 0.577 0.454 1.86 0.757 2.85 1.14 3.73 1.35 6.04 1.35 15 0 9.27-0.221 11.5-1.53 15.8-0.394 1.29-0.716 2.58-0.716 2.87 0 0.472-0.448 1.53-2.04 4.84-0.812 1.68-3.2 5.15-4.45 6.46-3.8 3.99-9.61 6.71-16 7.5-3.7 0.455-8.58 0.513-10.9 0.129zm12.4-8.66c3.27-0.837 4.92-1.72 7.13-3.8 1.47-1.39 2.32-2.54 3.39-4.59 0.784-1.51 1.42-3 1.42-3.31 0-0.317 0.116-0.648 0.257-0.735 0.738-0.456 2.14-11.2 2.14-16.3 0-4.26-1.2-13-1.98-14.5-0.229-0.445-0.417-1.04-0.417-1.32 0-0.847-2.67-5.87-3.77-7.08-0.566-0.626-1.03-1.25-1.03-1.39 0-0.371-3.25-2.86-4.65-3.56-2.95-1.47-7.64-2.52-8.42-1.87-0.37 0.307-0.431 4.53-0.431 29.5 0 16 0.09 29.2 0.2 29.4 0.402 0.402 3.96 0.185 6.15-0.375zm-94.2 2.81c3.26-0.598 4.74-1.68 5-3.66 0.216-1.62-0.17-2.07-3.14-3.71-2.07-1.14-3.24-1.66-6.67-2.93-0.742-0.276-1.64-0.664-2-0.863-0.36-0.199-0.855-0.362-1.1-0.362-0.245 0-0.827-0.189-1.29-0.42-1.27-0.628-5.41-2.25-7.39-2.9-0.958-0.312-2.1-0.77-2.55-1.02-1.69-0.942-6.79-2.88-7.18-2.73-0.528 0.203-0.212 2.56 0.545 4.06 0.291 0.577 0.883 1.82 1.32 2.75 1.96 4.24 6.15 8.45 10.3 10.3 2.06 0.94 6.59 1.83 9.54 1.88 1.15 0.0186 3.25-0.178 4.66-0.436zm-236-11.3c0.23-0.878 0.841-2.82 1.06-3.37 0.619-1.56 0.942-2.87 0.773-3.15-0.311-0.503-1.22-0.339-1.83 0.329-0.314 0.347-1.41 1.25-2.45 2.01-1.03 0.757-1.88 1.58-1.88 1.82 0 0.531 0.86 1.54 1.32 1.55 0.181 4e-3 0.666 0.271 1.08 0.593 0.856 0.669 1.77 0.777 1.92 0.225zm195-16.6c0.119-0.309-0.29-0.958-1.18-1.87-3.15-3.24-4.46-4.98-6.08-8-0.804-1.51-1.5-1.61-2.92-0.437-1.56 1.29-1.49 2.06 0.3 3.5 1.79 1.43 5.77 5.33 5.77 5.66 0 0.133 0.293 0.554 0.652 0.936 0.801 0.853 3.15 1 3.45 0.221zm81.5-10c0-6-0.037-6.45-0.548-6.55-0.349-0.0673-0.922 0.331-1.58 1.1-1.22 1.43-3.74 3.05-4.74 3.05-1.05 0-1.55 0.738-1.13 1.66 0.186 0.407 0.502 0.741 0.702 0.741 0.392 0 2.51 2.14 4.85 4.91 2.37 2.8 2.44 2.65 2.44-4.91zm-25.7-11c0.097-0.254-0.042-0.703-0.309-0.998-0.268-0.295-0.486-0.671-0.486-0.834 0-0.163-0.788-1.5-1.75-2.98-1.77-2.71-4.68-5.67-6.65-6.76-0.577-0.32-1.64-0.91-2.35-1.31-1.7-0.956-6.37-1.95-9.12-1.95-2.36 4e-3 -4.93 0.566-6.1 1.33-0.948 0.621-0.974 1.94-0.056 2.76 0.856 0.767 5.5 3 9.55 4.59 1.72 0.675 3.56 1.43 4.1 1.67 1.92 0.866 2.96 1.29 5.47 2.22 2.3 0.857 3.76 1.43 6 2.36 1.07 0.445 1.49 0.417 1.7-0.109h-2e-4z" style="fill:#1e1812"/>
</svg>