<?xml version="1.0" encoding="UTF-8" standalone="no"?>
<svg xmlns:svg="http://www.w3.org/2000/svg" xmlns="http://www.w3.org/2000/svg" version="1.1" width="921" height="175" id="svg2">
  <g transform="translate(269.2404,-140.19638)" id="layer1">
    <g transform="translate(109.60155,-54.548234)" id="g3012" style="fill:#0dadea;stroke-miterlimit:4;stroke-dasharray:none">
      <g id="g3763">
        <path d="m -378.84191,218.74461 71.99996,-10 0,69.5 -71.99996,0.5 z m 71.99996,67.5 0,69.5 -71.99996,-10 -4e-5,-60 z m 7.99985,-78.5 95.50015,-13 -1.3e-4,82.5 -95.49987,1 z m 95.50028,79.5 0,82.5 -95.49997,-13 0,-70.5 z" id="path13" style="fill:#00adef;fill-opacity:1;fill-rule:evenodd;stroke:none"/>
        <g transform="scale(1.0348139,0.96635733)" id="text3860" style="font-size:13.30103874px;font-style:normal;font-variant:normal;font-weight:bold;font-stretch:normal;line-height:125%;letter-spacing:0px;word-spacing:0px;fill:#00adef;fill-opacity:1;stroke:none;font-family:Segoe UI;-inkscape-font-specification:Segoe UI Bold"/>
        <g transform="matrix(1.0086374,0,0,0.99236268,0.49453219,4.586264e-6)" id="text3868" style="font-size:23.07272339px;font-style:normal;font-variant:normal;font-weight:bold;font-stretch:normal;line-height:125%;letter-spacing:0px;word-spacing:0px;fill:#00adef;fill-opacity:1;stroke:none;font-family:Segoe UI;-inkscape-font-specification:Segoe UI Bold">
          <path d="m 431.54398,264.93165 0,3.17559 1.3727,0 c 1.26068,0 1.89103,-0.53251 1.89104,-1.59754 -1e-5,-0.57146 -0.16959,-0.97734 -0.50876,-1.21763 -0.33918,-0.24027 -0.87673,-0.36041 -1.61267,-0.36042 z m 5.03,8.18249 -1.55508,0 -0.99832,-2.2307 c -0.50556,-1.11697 -1.04952,-1.67545 -1.63187,-1.67546 l -0.84473,0 0,3.90616 -1.27669,0 0,-9.29297 2.57259,0 c 1.06871,0 1.89264,0.22731 2.47181,0.68187 0.57914,0.4546 0.86872,1.07153 0.86873,1.85081 -1e-5,0.63642 -0.2032,1.17867 -0.60956,1.62675 -0.40638,0.4481 -0.97433,0.75007 -1.70385,0.90592 l 0,0.039 c 0.50554,0.11041 1.0079,0.68189 1.50707,1.71443 z M 433.07986,262.097 c -1.75346,1e-5 -3.25095,0.62994 -4.49244,1.88976 -1.2415,1.25986 -1.86225,2.77946 -1.86225,4.55883 0,1.77937 0.62075,3.29735 1.86225,4.55394 1.24149,1.2566 2.73898,1.8849 4.49244,1.8849 1.75345,0 3.24933,-0.6283 4.48765,-1.8849 1.23828,-1.25659 1.85743,-2.77457 1.85745,-4.55394 -2e-5,-1.77937 -0.61917,-3.29897 -1.85745,-4.55883 -1.23832,-1.25982 -2.7342,-1.88975 -4.48765,-1.88976 z m 0,13.75438 c -1.99024,0 -3.68771,-0.71272 -5.09239,-2.13816 -1.40469,-1.42544 -2.10704,-3.14798 -2.10704,-5.16763 0,-2.01964 0.70235,-3.74218 2.10704,-5.16764 1.40468,-1.42542 3.10215,-2.13815 5.09239,-2.13816 1.98383,10e-6 3.6781,0.71274 5.0828,2.13816 1.40467,1.42546 2.10702,3.148 2.10703,5.16764 -1e-5,2.01965 -0.70236,3.74219 -2.10703,5.16763 -1.4047,1.42544 -3.09897,2.13816 -5.0828,2.13816 z" id="path4134" style="font-size:19.96845055px;fill:#00acef;fill-opacity:1"/>
          <path d="m -176.48371,372.5902 -1.13354,0 0,-6.08412 c -10e-6,-0.48066 0.0317,-1.06883 0.095,-1.76453 l -0.0272,0 c -0.10861,0.40899 -0.2059,0.70203 -0.29187,0.8791 l -3.32595,6.96955 -0.5566,0 -3.31915,-6.91895 c -0.0951,-0.20237 -0.19233,-0.51227 -0.29188,-0.9297 l -0.0272,0 c 0.0361,0.36261 0.0543,0.955 0.0543,1.77718 l 0,6.07147 -1.09959,0 0,-9.06926 1.50686,0 2.98656,6.32444 c 0.23078,0.48488 0.38012,0.84749 0.44799,1.08781 l 0.0407,0 c 0.19457,-0.49752 0.35069,-0.86855 0.46835,-1.1131 l 3.04767,-6.29915 1.4254,0 z" id="path4132" style="font-size:19.96845055px"/>
          <path d="m -188.01909,364.48224 -2.76115,0 0,8.10795 -1.12046,0 0,-8.10795 -2.75447,0 0,-0.96131 6.63608,0 z" id="path4037" style="font-size:19.96845055px"/>
          <path d="m 466.54671,309.58464 c -1e-5,-3.04793 0.38089,-5.99756 1.1427,-8.84892 0.76178,-2.85127 1.90447,-5.48137 3.42807,-7.89028 1.52358,-2.40883 3.44035,-4.57189 5.75033,-6.48921 2.30994,-1.91721 5.01307,-3.46577 8.10942,-4.64568 -4.57079,-2.55629 -8.20774,-5.83776 -10.91087,-9.84442 -2.70315,-4.00652 -4.05472,-8.44327 -4.05471,-13.31025 -10e-6,-3.8836 0.79865,-7.47233 2.39597,-10.76618 1.5973,-3.29367 3.80895,-6.14498 6.63499,-8.55395 2.82599,-2.40877 6.15577,-4.28916 9.98934,-5.64119 3.83352,-1.35181 8.0111,-2.02776 12.53276,-2.02787 4.57073,1.1e-4 8.78517,0.68835 12.64334,2.06475 3.85806,1.3766 7.20013,3.26928 10.02621,5.67805 2.82594,2.40897 5.02532,5.26028 6.59813,8.55395 1.57267,3.29385 2.35903,6.858 2.3591,10.69244 -7e-5,4.86698 -1.35164,9.30373 -4.05471,13.31025 -2.70321,4.00666 -6.29102,7.28813 -10.76342,9.84442 3.04711,1.17991 5.73797,2.71618 8.07256,4.60881 2.33446,1.89274 4.2881,4.04351 5.86091,6.45234 1.57267,2.40891 2.75222,5.039 3.53866,7.89028 0.78629,2.85135 1.17948,5.82557 1.17955,8.92266 -7e-5,4.62112 -0.86017,8.84894 -2.58027,12.68345 -1.72026,3.83454 -4.12851,7.11601 -7.22477,9.84442 -3.09639,2.72842 -6.80707,4.85461 -11.13203,6.37859 -4.32508,1.52398 -9.09244,2.28597 -14.30209,2.28597 -5.16059,0 -9.89109,-0.76199 -14.19151,-2.28597 -4.30048,-1.52398 -8.01116,-3.65017 -11.13204,-6.37859 -3.12091,-2.72841 -5.55374,-6.00988 -7.29848,-9.84442 -1.74476,-3.83451 -2.61715,-8.06233 -2.61714,-12.68345 z m 16.66119,-1.47482 c -2e-5,2.99883 0.44231,5.70266 1.32701,8.11151 0.88464,2.40889 2.13791,4.44905 3.75982,6.1205 1.62186,1.67147 3.57549,2.94965 5.86091,3.83453 2.28535,0.8849 4.82876,1.32735 7.63024,1.32734 2.7031,1e-5 5.18507,-0.45473 7.44594,-1.36421 2.26075,-0.90946 4.21439,-2.21222 5.8609,-3.90827 1.6464,-1.69603 2.93653,-3.73619 3.87041,-6.12051 0.93376,-2.38426 1.40066,-5.05122 1.40072,-8.00089 -6e-5,-2.7038 -0.44239,-5.24786 -1.327,-7.63219 -0.88473,-2.38425 -2.138,-4.46129 -3.75982,-6.23111 -1.62195,-1.76974 -3.57558,-3.17082 -5.86091,-4.20324 -2.28544,-1.03232 -4.82885,-1.54851 -7.63024,-1.54856 -2.65404,5e-5 -5.12373,0.47937 -7.40907,1.43795 -2.28542,0.95868 -4.25135,2.3106 -5.89777,4.05575 -1.64649,1.74525 -2.93662,3.82228 -3.87041,6.23112 -0.93384,2.4089 -1.40075,5.039 -1.40073,7.89028 z m 3.61239,-47.78415 c -3e-5,2.2123 0.39316,4.26476 1.17955,6.15737 0.78635,1.89276 1.84303,3.53964 3.17006,4.94064 1.32696,1.40115 2.88741,2.49497 4.68135,3.28148 1.79386,0.78663 3.72293,1.17992 5.78718,1.17985 2.06418,7e-5 3.99324,-0.40551 5.78719,-1.21672 1.79386,-0.81109 3.36659,-1.9172 4.71821,-3.31835 1.35152,-1.40101 2.42049,-3.04789 3.20692,-4.94064 0.78631,-1.89261 1.1795,-3.92049 1.17955,-6.08363 -5e-5,-2.21215 -0.38095,-4.2769 -1.14269,-6.19424 -0.76186,-1.91718 -1.80625,-3.56406 -3.13319,-4.94065 -1.32705,-1.37641 -2.89979,-2.45794 -4.71822,-3.2446 -1.81853,-0.78648 -3.78444,-1.17976 -5.89777,-1.17986 -2.2117,1e-4 -4.22677,0.40567 -6.0452,1.21673 -1.81852,0.81124 -3.37897,1.92965 -4.68137,3.35521 -1.30244,1.42575 -2.30999,3.08492 -3.0226,4.97752 -0.71267,1.89277 -1.069,3.89606 -1.06897,6.00989 z m -110.78708,76.63012 -0.9074,-14.44456 c 6.37825,4.85855 11.83092,6.59657 19.53391,6.59656 10.30331,10e-6 13.18648,-3.96436 13.18652,-10.04981 -4e-5,-1.71764 -0.44161,-3.17766 -1.32471,-4.38004 -0.88319,-1.20234 -2.07298,-2.26975 -3.56938,-3.20222 -1.49647,-0.93242 -3.26275,-1.76671 -5.29886,-2.50288 -2.03617,-0.73611 -3.46065,-1.739 -6.58072,-3.42454 -3.09102,-1.22687 -3.63209,-1.90442 -6.10977,-3.27858 -2.47773,-1.3741 -3.43496,-3.29352 -5.07856,-5.03576 -1.64364,-1.74216 -2.23275,-3.3875 -3.06683,-5.59597 -1.03316,-3.72485 -1.34794,-4.45653 -1.25112,-7.39951 0.0995,-3.02498 -0.41461,-4.60401 1.60122,-8.28675 2.41395,-5.09799 2.40036,-4.61166 5.19559,-7.81543 3.19333,-2.90034 3.06309,-3.00158 8.33543,-4.76743 5.37182,-1.3613 5.39194,-1.3343 11.40728,-1.43548 6.96698,8e-5 10.59908,1.05521 16.09424,3.16541 l -0.32488,14.28372 c -5.29891,-3.63157 -9.82004,-5.9395 -16.6889,-5.93956 -2.15882,6e-5 -3.65539,0.2209 -5.39711,0.66252 -1.79512,0.71258 -2.79851,1.66562 -3.54513,2.99243 -1.01331,1.59776 -1.2624,2.25873 -1.73596,3.52538 -0.47361,1.26677 -0.57667,2.77974 -0.57665,4.10473 -2e-5,1.61957 1.02398,2.53287 1.7109,3.66157 0.7864,1.04455 0.79753,1.08299 2.14681,2.05972 1.48998,1.2878 1.46644,1.15964 3.49618,2.58606 1.88892,0.71165 4.51368,2.63667 6.96689,3.47092 3.23816,1.3251 5.01092,2.9051 7.5868,4.27919 2.57579,1.37417 4.31767,2.93233 6.13308,4.6745 1.81529,2.4953 2.09963,2.75026 3.08097,5.65983 0.6105,3.03513 0.77101,4.4484 0.77107,7.58924 -6e-5,3.82795 -0.8832,7.16513 -2.64943,10.01153 -1.51921,3.34847 -2.98714,5.20207 -5.9309,7.06696 -2.94386,1.86489 -4.75356,3.02087 -8.60501,3.92878 -3.85152,0.9079 -7.68467,1.13145 -11.95317,1.13145 -8.2427,0 -10.61759,-1.14372 -16.6524,-3.89198 z m -4.38373,-73.25566 -22.22578,75.3809 -17.88366,0 -13.68874,-51.08823 c -0.53975,-1.96299 -0.88319,-4.17141 -1.03033,-6.62527 l -0.29438,0 c -0.0982,1.66864 -0.53975,3.82799 -1.32472,6.47804 l -14.86626,51.23546 -17.51568,0 -22.1522,-75.3809 17.66288,0 13.68874,54.32725 c 0.44154,1.61953 0.73591,3.77888 0.88313,6.47805 l 0.51517,0 c 0.14716,-2.06118 0.53967,-4.26961 1.17753,-6.62528 l 15.23423,-54.18002 16.04379,0 13.54153,54.54809 c 0.4415,1.71768 0.76041,3.87703 0.95675,6.47805 l 0.51516,0 c 0.0981,-1.8158 0.46603,-3.97515 1.10393,-6.47805 l 13.39434,-54.54809 z m -151.02196,77.14764 c -11.6281,0 -20.91336,-3.52121 -27.85583,-10.56363 -6.94251,-7.04241 -10.41375,-16.37913 -10.41374,-28.01019 -10e-6,-12.66159 3.61843,-22.55041 10.85531,-29.66651 7.23685,-7.11596 16.98822,-10.67397 29.25414,-10.67405 11.77519,8e-5 20.95007,3.45994 27.52465,10.3796 6.57444,6.91979 9.86169,16.51416 9.86178,28.78313 -9e-5,12.02367 -3.54492,21.65485 -10.63453,28.89356 -7.08974,7.23873 -16.62033,10.85809 -28.59178,10.85809 z m 0.80955,-65.29576 c -6.67268,6e-5 -11.94701,2.33118 -15.823,6.99335 -3.87605,4.66228 -5.81405,11.09124 -5.81403,19.2869 -2e-5,7.90129 1.96252,14.12168 5.88763,18.66119 3.92505,4.53956 9.17484,6.80932 15.7494,6.80931 6.72165,1e-5 11.88558,-2.23295 15.49182,-6.69889 3.6061,-4.4659 5.40918,-10.82125 5.40925,-19.06606 -7e-5,-8.29382 -1.80315,-14.69824 -5.40925,-19.2133 -3.60624,-4.51494 -8.77017,-6.77244 -15.49182,-6.7725 z m -47.68492,63.52902 -17.07411,0 0,-12.80887 -0.29438,0 c -5.49517,9.71708 -13.95863,14.57561 -25.39038,14.57561 -9.27305,0 -16.6939,-3.37398 -22.2626,-10.12195 -5.56871,-6.74795 -8.35307,-15.93744 -8.35306,-27.5685 -10e-6,-12.46528 3.07872,-22.45226 9.23621,-29.96096 6.15745,-7.50857 14.36332,-11.26289 24.61764,-11.26297 10.1561,8e-5 17.54016,4.07339 22.15219,12.21995 l 0.29438,0 0,-46.67137 17.07411,0 z m -16.85332,-34.45143 0,-9.86429 c -6e-5,-5.34925 -1.74182,-9.88879 -5.22528,-13.61862 -3.48355,-3.72973 -7.92381,-5.59462 -13.32075,-5.59468 -6.37829,6e-5 -11.39504,2.38025 -15.05024,7.14057 -3.65526,4.76044 -5.48287,11.36117 -5.48285,19.80221 -2e-5,7.6559 1.754,13.70453 5.26206,18.14589 3.50801,4.4414 8.23037,6.66209 14.16711,6.66208 5.83851,1e-5 10.57314,-2.14706 14.20389,-6.44124 3.63064,-4.29413 5.446,-9.70477 5.44606,-16.23192 z m -66.076905,34.45143 -17.07411,0 0,-42.47537 c -6e-5,-14.08479 -4.980006,-21.1272 -14.939857,-21.12726 -5.200769,6e-5 -9.493821,1.95083 -12.879175,5.85232 -3.385423,3.90161 -5.07811,8.82148 -5.07808,14.75964 l 0,42.99067 -17.147712,0 0,-75.3809 17.147712,0 0,12.51441 0.294375,0 c 5.642276,-9.52069 13.786822,-14.28107 24.433657,-14.28115 8.193553,8e-5 14.449143,2.66245 18.766808,7.98714 4.317515,5.32482 6.476312,13.01749 6.476382,23.07804 z M 1.8500535,247.87309 c -2.79664425,9e-5 -5.1884922,-0.90782 -7.1755437,-2.72373 -1.9870915,-1.81572 -2.9806273,-4.12229 -2.9806173,-6.91973 -10e-6,-2.79723 0.9935258,-5.12834 2.9806173,-6.99334 1.9870515,-1.86478 4.37889945,-2.79723 7.1755437,-2.79734 2.8947192,1.1e-4 5.3479018,0.93256 7.3595264,2.79734 2.0115751,1.865 3.0173781,4.19611 3.0174081,6.99334 -3e-5,2.65021 -1.005833,4.91998 -3.0174081,6.80931 -2.0116246,1.88952 -4.4648072,2.83424 -7.3595264,2.83415 z m 8.4634535,91.20794 -17.07411,0 0,-75.3809 17.07411,0 z m -20.470701,-105.5627 -28.922959,105.5627 -19.797144,0 -20.091518,-73.835 c -0.834157,-3.1408 -1.349325,-6.57612 -1.545505,-10.30598 l -0.294384,0 c -0.245388,3.48448 -0.834147,6.87073 -1.766288,10.15875 l -20.165118,73.98223 -20.23871,0 -29.51173,-105.5627 19.20838,0 19.13479,77.29486 c 0.78498,3.23905 1.27561,6.6253 1.4719,10.15876 l 0.36798,0 c 0.19622,-2.50287 0.8831,-5.88911 2.06067,-10.15876 l 21.637022,-77.29486 18.030856,0 20.017927,77.88378 c 0.686784,2.65013 1.201953,5.791 1.545505,9.42261 l 0.294374,0 c 0.147093,-2.45379 0.711318,-5.69281 1.692697,-9.71707 l 18.766808,-77.58932 z" id="path4039" style="font-style:normal;font-variant:normal;font-weight:600;font-stretch:normal;text-align:start;line-height:125%;writing-mode:lr-tb;text-anchor:start;fill:#00adef;fill-opacity:1;font-family:Segoe UI Semibold;-inkscape-font-specification:'Segoe UI Semibold, Semi-Bold'"/>
        </g>
      </g>
    </g>
  </g>
</svg>